<?xml version="1.0" encoding="utf-8"?>
<!-- Generator: Adobe Illustrator 17.1.0, SVG Export Plug-In . SVG Version: 6.00 Build 0)  -->
<!DOCTYPE svg PUBLIC "-//W3C//DTD SVG 1.0//EN" "http://www.w3.org/TR/2001/REC-SVG-20010904/DTD/svg10.dtd">
<svg version="1.0" id="Camada_1" xmlns="http://www.w3.org/2000/svg" xmlns:xlink="http://www.w3.org/1999/xlink" x="0px" y="0px"
     viewBox="0 0 147.9 177" style="enable-background:new 0 0 147.9 177;" xml:space="preserve">
<style type="text/css">
	.st0{fill:#FFCD24;}
	.st1{fill:#FFFFFF;}
	.st2{fill:#9D928F;}
</style>
<path class="st0" d="M0,0h147.9c0,25.7,0,67,0,108H0V0z"/>
<path class="st1" d="M69.6,75.8c-50.4-11.9-11.4-49.4,46.8-54.7c0,0-85.1,4.6-88.3,32C24.8,81.4,69.6,75.8,69.6,75.8z"/>
<path class="st2" d="M0,108h147.9c0,17,0,43,0,69H0V108z"/>
<path class="st1" d="M76.3,63.4c50.4,12.3,11.4,51.4-46.8,56.9c0,0,85.1-4.8,88.3-33.3C121.1,57.6,76.3,63.4,76.3,63.4z"/>
<g>
	<path class="st1" d="M26.1,140.5l3.4-0.3c0.2,1.1,0.6,2,1.3,2.5c0.6,0.5,1.5,0.8,2.5,0.8c1.1,0,2-0.2,2.6-0.7s0.9-1,0.9-1.7
		c0-0.4-0.1-0.8-0.4-1.1c-0.2-0.3-0.7-0.5-1.3-0.8c-0.4-0.1-1.4-0.4-2.8-0.8c-1.9-0.5-3.2-1-4-1.7c-1.1-1-1.6-2.1-1.6-3.5
		c0-0.9,0.3-1.7,0.8-2.5s1.2-1.4,2.2-1.8c0.9-0.4,2.1-0.6,3.4-0.6c2.2,0,3.8,0.5,4.9,1.4c1.1,1,1.7,2.2,1.7,3.8l-3.5,0.2
		c-0.2-0.9-0.5-1.5-1-1.9s-1.2-0.6-2.2-0.6s-1.8,0.2-2.4,0.6c-0.4,0.3-0.6,0.6-0.6,1.1c0,0.4,0.2,0.8,0.5,1.1
		c0.4,0.4,1.5,0.8,3.2,1.2s3,0.8,3.8,1.3c0.8,0.4,1.5,1,1.9,1.8c0.5,0.7,0.7,1.7,0.7,2.8c0,1-0.3,1.9-0.8,2.8
		c-0.6,0.9-1.3,1.5-2.4,1.9c-1,0.4-2.3,0.6-3.8,0.6c-2.2,0-3.9-0.5-5.1-1.5C27,143.9,26.3,142.5,26.1,140.5z"/>
	<path class="st1" d="M42.4,139.7c0-1.1,0.3-2.2,0.8-3.2s1.3-1.8,2.3-2.4c1-0.5,2.1-0.8,3.4-0.8c1.9,0,3.5,0.6,4.7,1.9
		c1.2,1.2,1.8,2.8,1.8,4.7s-0.6,3.5-1.8,4.7c-1.2,1.3-2.8,1.9-4.7,1.9c-1.2,0-2.3-0.3-3.3-0.8c-1.1-0.5-1.8-1.3-2.4-2.3
		C42.7,142.4,42.4,141.1,42.4,139.7z M45.8,139.9c0,1.3,0.3,2.2,0.9,2.9c0.6,0.7,1.3,1,2.2,1s1.6-0.3,2.2-1c0.6-0.7,0.9-1.6,0.9-2.9
		c0-1.2-0.3-2.2-0.9-2.9c-0.6-0.7-1.3-1-2.2-1s-1.6,0.3-2.2,1S45.8,138.6,45.8,139.9z"/>
	<path class="st1" d="M56.6,133.6h1.9v-1c0-1.1,0.1-1.9,0.3-2.4s0.6-0.9,1.2-1.3c0.6-0.3,1.4-0.5,2.3-0.5c1,0,1.9,0.1,2.8,0.4
		l-0.5,2.3c-0.5-0.1-1-0.2-1.5-0.2s-0.8,0.1-1,0.3s-0.3,0.7-0.3,1.3v0.9h2.5v2.6h-2.5v10h-3.3v-10h-1.9V133.6z"/>
	<path class="st1" d="M71.9,133.6v2.7h-2.3v5.1c0,1,0,1.6,0.1,1.8c0,0.2,0.1,0.3,0.3,0.4c0.2,0.1,0.3,0.2,0.6,0.2s0.8-0.1,1.3-0.3
		l0.3,2.6c-0.8,0.3-1.7,0.5-2.6,0.5c-0.6,0-1.1-0.1-1.6-0.3s-0.8-0.5-1.1-0.8c-0.2-0.3-0.4-0.8-0.5-1.3c-0.1-0.4-0.1-1.2-0.1-2.4
		v-5.5h-1.5v-2.7h1.5v-2.5l3.4-1.9v4.5h2.2V133.6z"/>
	<path class="st1" d="M74.3,146.2v-17.4h3.3v17.4H74.3z"/>
	<path class="st1" d="M83.5,137.4l-3-0.5c0.3-1.2,0.9-2.1,1.8-2.7c0.8-0.6,2.1-0.9,3.7-0.9c1.5,0,2.6,0.2,3.3,0.5
		c0.7,0.4,1.2,0.8,1.5,1.3s0.4,1.5,0.4,3v3.9c0,1.1,0.1,1.9,0.2,2.5c0.1,0.5,0.3,1.1,0.6,1.7h-3.3c-0.1-0.2-0.2-0.6-0.3-1
		c-0.1-0.2-0.1-0.3-0.1-0.4c-0.6,0.6-1.2,1-1.8,1.2c-0.6,0.3-1.3,0.4-2.1,0.4c-1.3,0-2.3-0.4-3.1-1.1c-0.7-0.7-1.1-1.6-1.1-2.7
		c0-0.7,0.2-1.3,0.5-1.9c0.3-0.6,0.8-1,1.4-1.3c0.6-0.3,1.5-0.6,2.7-0.8c1.6-0.3,2.6-0.6,3.2-0.8v-0.3c0-0.6-0.2-1.1-0.5-1.4
		c-0.3-0.3-0.9-0.4-1.8-0.4c-0.6,0-1.1,0.1-1.4,0.4C84,136.4,83.7,136.8,83.5,137.4z M88,140.1c-0.4,0.1-1.1,0.3-2,0.5
		s-1.5,0.4-1.8,0.6c-0.4,0.3-0.7,0.7-0.7,1.2s0.2,0.9,0.5,1.2s0.8,0.5,1.3,0.5c0.6,0,1.2-0.2,1.7-0.6c0.4-0.3,0.7-0.7,0.8-1.1
		c0.1-0.3,0.1-0.8,0.1-1.6L88,140.1L88,140.1z"/>
	<path class="st1" d="M106,146.2h-3.3v-6.4c0-1.4-0.1-2.2-0.2-2.6c-0.1-0.4-0.4-0.7-0.7-0.9s-0.7-0.3-1.2-0.3
		c-0.6,0-1.1,0.2-1.6,0.5s-0.8,0.7-0.9,1.3c-0.2,0.5-0.3,1.5-0.3,2.9v5.7h-3.3v-12.6h3.1v1.9c1.1-1.4,2.5-2.1,4.2-2.1
		c0.7,0,1.4,0.1,2,0.4c0.6,0.3,1.1,0.6,1.4,1c0.3,0.4,0.5,0.9,0.7,1.4s0.2,1.3,0.2,2.2L106,146.2L106,146.2z"/>
	<path class="st1" d="M121,146.2h-3.1v-1.9c-0.5,0.7-1.1,1.3-1.8,1.6c-0.7,0.4-1.4,0.5-2.1,0.5c-1.5,0-2.7-0.6-3.7-1.8
		s-1.6-2.8-1.6-4.9c0-2.1,0.5-3.8,1.5-4.9c1-1.1,2.3-1.7,3.8-1.7c1.4,0,2.6,0.6,3.7,1.8v-6.3h3.3L121,146.2L121,146.2z M112.1,139.6
		c0,1.3,0.2,2.3,0.6,2.9c0.5,0.9,1.3,1.3,2.3,1.3c0.8,0,1.4-0.3,2-1c0.5-0.7,0.8-1.6,0.8-2.9c0-1.5-0.3-2.5-0.8-3.1s-1.2-1-2-1
		s-1.5,0.3-2,0.9C112.4,137.4,112.1,138.3,112.1,139.6z"/>
</g>
<g>
	<path class="st1" d="M43.4,154.8l2-0.2c0.1,0.7,0.4,1.2,0.7,1.5c0.4,0.3,0.9,0.5,1.5,0.5c0.7,0,1.2-0.1,1.5-0.4
		c0.3-0.3,0.5-0.6,0.5-1c0-0.2-0.1-0.4-0.2-0.6c-0.1-0.2-0.4-0.3-0.7-0.4c-0.2-0.1-0.8-0.2-1.6-0.4c-1.1-0.3-1.9-0.6-2.3-1
		c-0.6-0.6-0.9-1.2-0.9-2.1c0-0.5,0.1-1,0.4-1.5s0.7-0.8,1.3-1c0.5-0.2,1.2-0.4,2-0.4c1.3,0,2.2,0.3,2.9,0.8c0.6,0.6,1,1.3,1,2.3
		l-2,0.1c-0.1-0.5-0.3-0.9-0.6-1.1c-0.3-0.2-0.7-0.3-1.3-0.3s-1.1,0.1-1.4,0.4c-0.2,0.2-0.3,0.4-0.3,0.6c0,0.2,0.1,0.4,0.3,0.6
		c0.3,0.2,0.9,0.4,1.9,0.7c1,0.2,1.7,0.5,2.2,0.7c0.5,0.3,0.8,0.6,1.1,1s0.4,1,0.4,1.6s-0.2,1.1-0.5,1.6s-0.8,0.9-1.4,1.1
		c-0.6,0.2-1.3,0.4-2.2,0.4c-1.3,0-2.3-0.3-2.9-0.9C44,156.9,43.6,156,43.4,154.8z"/>
	<path class="st1" d="M53.3,149.8V148h1.9v1.8H53.3z M53.3,158.2v-7.4h1.9v7.4H53.3z"/>
	<path class="st1" d="M56.6,156.1l1.9-0.3c0.1,0.4,0.3,0.7,0.5,0.9c0.3,0.2,0.6,0.3,1.1,0.3s0.9-0.1,1.1-0.3
		c0.2-0.1,0.3-0.3,0.3-0.5c0-0.1,0-0.3-0.1-0.4c-0.1-0.1-0.3-0.2-0.6-0.3c-1.6-0.3-2.5-0.7-3-1c-0.6-0.4-0.9-1-0.9-1.7
		c0-0.6,0.3-1.2,0.8-1.6c0.5-0.4,1.3-0.7,2.3-0.7s1.7,0.2,2.2,0.5s0.8,0.8,1,1.5l-1.8,0.3c-0.1-0.3-0.2-0.5-0.4-0.7
		s-0.5-0.2-0.9-0.2c-0.5,0-0.9,0.1-1.1,0.2c-0.1,0.1-0.2,0.2-0.2,0.4c0,0.1,0.1,0.3,0.2,0.4c0.2,0.1,0.8,0.3,1.8,0.6
		c1,0.2,1.7,0.5,2.2,0.9c0.4,0.3,0.6,0.8,0.6,1.5s-0.3,1.3-0.8,1.8c-0.6,0.5-1.4,0.7-2.5,0.7c-1,0-1.8-0.2-2.4-0.6
		C57.1,157.3,56.7,156.8,56.6,156.1z"/>
	<path class="st1" d="M68.4,150.8v1.6h-1.3v3c0,0.6,0,1,0,1.1s0.1,0.2,0.2,0.2c0.1,0.1,0.2,0.1,0.3,0.1c0.2,0,0.4-0.1,0.8-0.2
		l0.2,1.5c-0.4,0.2-1,0.3-1.5,0.3c-0.3,0-0.7-0.1-0.9-0.2c-0.3-0.1-0.5-0.3-0.6-0.5s-0.2-0.4-0.3-0.8c0-0.2-0.1-0.7-0.1-1.4v-3.2
		h-0.9v-1.6h0.9v-1.5l1.9-1.1v2.6L68.4,150.8L68.4,150.8z"/>
	<path class="st1" d="M74,155.8l1.9,0.3c-0.2,0.7-0.6,1.3-1.2,1.6c-0.5,0.4-1.2,0.6-2,0.6c-1.3,0-2.2-0.4-2.8-1.3
		c-0.5-0.7-0.7-1.5-0.7-2.6c0-1.2,0.3-2.2,0.9-2.9c0.6-0.7,1.4-1,2.4-1c1.1,0,1.9,0.4,2.6,1.1c0.6,0.7,0.9,1.8,0.9,3.3h-4.8
		c0,0.6,0.2,1,0.5,1.4c0.3,0.3,0.7,0.5,1.1,0.5c0.3,0,0.6-0.1,0.8-0.3C73.8,156.5,73.9,156.2,74,155.8z M74.1,153.8
		c0-0.6-0.2-1-0.4-1.3c-0.3-0.3-0.6-0.4-1-0.4s-0.8,0.2-1,0.5c-0.3,0.3-0.4,0.7-0.4,1.3h2.8V153.8z"/>
	<path class="st1" d="M77.5,150.8h1.8v1c0.6-0.8,1.4-1.2,2.3-1.2c0.5,0,0.9,0.1,1.2,0.3s0.6,0.5,0.8,0.9c0.3-0.4,0.7-0.7,1-0.9
		c0.4-0.2,0.8-0.3,1.2-0.3c0.5,0,1,0.1,1.4,0.3s0.6,0.5,0.8,1c0.1,0.3,0.2,0.8,0.2,1.5v4.7h-1.9v-4.2c0-0.7-0.1-1.2-0.2-1.4
		c-0.2-0.3-0.5-0.4-0.8-0.4s-0.5,0.1-0.8,0.3c-0.2,0.2-0.4,0.4-0.5,0.7s-0.2,0.8-0.2,1.5v3.6h-1.9v-4.1c0-0.7,0-1.2-0.1-1.4
		s-0.2-0.4-0.3-0.5s-0.3-0.2-0.6-0.2s-0.6,0.1-0.8,0.2c-0.2,0.2-0.4,0.4-0.5,0.7s-0.2,0.8-0.2,1.5v3.6h-1.9V150.8z"/>
	<path class="st1" d="M91.6,153l-1.8-0.3c0.2-0.7,0.5-1.2,1-1.6c0.5-0.3,1.2-0.5,2.1-0.5c0.9,0,1.5,0.1,1.9,0.3s0.7,0.5,0.9,0.8
		s0.3,0.9,0.3,1.8v2.3c0,0.7,0,1.1,0.1,1.4c0.1,0.3,0.2,0.6,0.3,1h-1.9c-0.1-0.1-0.1-0.3-0.2-0.6c0-0.1-0.1-0.2-0.1-0.2
		c-0.3,0.3-0.7,0.6-1.1,0.7c-0.4,0.2-0.8,0.2-1.2,0.2c-0.8,0-1.3-0.2-1.8-0.6c-0.4-0.4-0.7-0.9-0.7-1.6c0-0.4,0.1-0.8,0.3-1.1
		s0.5-0.6,0.8-0.8c0.4-0.2,0.9-0.3,1.5-0.5c0.9-0.2,1.5-0.3,1.9-0.5V153c0-0.4-0.1-0.6-0.3-0.8s-0.5-0.2-1-0.2
		c-0.3,0-0.6,0.1-0.8,0.2C91.9,152.4,91.7,152.7,91.6,153z M94.2,154.6c-0.2,0.1-0.6,0.2-1.2,0.3c-0.5,0.1-0.9,0.2-1.1,0.3
		c-0.3,0.2-0.4,0.4-0.4,0.7s0.1,0.5,0.3,0.7s0.5,0.3,0.8,0.3s0.7-0.1,1-0.3c0.2-0.2,0.4-0.4,0.5-0.6c0.1-0.2,0.1-0.5,0.1-1
		L94.2,154.6L94.2,154.6z"/>
	<path class="st1" d="M97.3,156.1l1.9-0.3c0.1,0.4,0.2,0.7,0.5,0.9s0.6,0.3,1.1,0.3s0.9-0.1,1.1-0.3c0.2-0.1,0.3-0.3,0.3-0.5
		c0-0.1,0-0.3-0.1-0.4c-0.1-0.1-0.3-0.2-0.6-0.3c-1.6-0.3-2.5-0.7-3-1c-0.6-0.4-0.9-1-0.9-1.7c0-0.6,0.3-1.2,0.8-1.6
		c0.5-0.4,1.3-0.7,2.3-0.7s1.7,0.2,2.2,0.5s0.8,0.8,1,1.5l-1.8,0.3c-0.1-0.3-0.2-0.5-0.4-0.7s-0.5-0.2-0.9-0.2
		c-0.5,0-0.9,0.1-1.1,0.2c-0.1,0.1-0.2,0.2-0.2,0.4c0,0.1,0.1,0.3,0.2,0.4c0.2,0.1,0.8,0.3,1.8,0.6c1,0.2,1.7,0.5,2.2,0.9
		c0.4,0.3,0.6,0.8,0.6,1.5s-0.3,1.3-0.8,1.8c-0.6,0.5-1.4,0.7-2.5,0.7c-1,0-1.8-0.2-2.4-0.6C97.9,157.3,97.5,156.8,97.3,156.1z"/>
</g>
</svg>
